PathFileType	4	(X/Y/Z)	47_1_tpose_p0_0-445_filt_butterworth.trc
DataRate	CameraRate	NumFrames	NumMarkers	Units	OrigDataRate	OrigDataStartFrame	OrigNumFrames
59.0	59.0	4	27	m	59.0	0	445
Frame#	Time	RHip			RKnee			RAnkle			RBigToe			RSmallToe			RHeel			LHip			LKnee			LAnkle			LBigToe			LSmallToe			LHeel			Neck			Head			Nose			RShoulder			RElbow			RWrist			RThumb			RIndex			RPinky			LShoulder			LElbow			LWrist			LThumb			LIndex			LPinky			
		X1	Y1	Z1	X2	Y2	Z2	X3	Y3	Z3	X4	Y4	Z4	X5	Y5	Z5	X6	Y6	Z6	X7	Y7	Z7	X8	Y8	Z8	X9	Y9	Z9	X10	Y10	Z10	X11	Y11	Z11	X12	Y12	Z12	X13	Y13	Z13	X14	Y14	Z14	X15	Y15	Z15	X16	Y16	Z16	X17	Y17	Z17	X18	Y18	Z18	X19	Y19	Z19	X20	Y20	Z20	X21	Y21	Z21	X22	Y22	Z22	X23	Y23	Z23	X24	Y24	Z24	X25	Y25	Z25	X26	Y26	Z26	X27	Y27	Z27	
0	0.0	0.3519075411071797	0.40809331152560596	-0.20275796067419766	0.341803209253551	0.6623473985875551	0.20471072075971417	0.3236832732015005	0.8704530726906885	0.56175609751872	0.3418380488978039	0.720396624111188	0.6553406642608428	0.4052928296577856	0.7419537577889177	0.6445485951782666	0.26426835272094534	0.9979351353799635	0.6094481843430608	0.1718663280996653	0.3643280552291137	-0.17542133753641667	0.14750095219165432	0.6125773501320415	0.21901540768704145	0.1315881567883076	0.8303402680988728	0.5816104001824572	0.20800087139156356	0.6503789599017354	0.6550616574264194	0.13078845878665404	0.7123168221563734	0.6647085264499727	0.1311572471299307	0.9028344632461078	0.6222394841388607	0.29069177018995074	0.12234073928313767	-0.6256394028966054	0.3447914946544649	-0.1448685107209679	-0.755451728906066	0.3245302565108392	-0.04299618595104797	-0.6203846768076016	0.4275083753936324	0.14378695178428152	-0.6350882702939716	0.6592266470644081	0.27222500219736917	-0.7111937687907893	0.8794251213880032	0.33941200345420935	-0.7405902046816522	1.0118187340132587	0.3531953095283618	-0.7126943786102108	1.0089924124218936	0.3789125148329384	-0.7238909513739422	0.989833774836258	0.37051856996094473	-0.718940430612412	0.1391081460889032	0.11447188652186689	-0.621178268771099	-0.1032370205352517	0.054596441542582794	-0.6327365862526924	-0.3441712044362251	-5.955385481956946e-05	-0.6228737845302226	-0.43074466389991695	-0.060643179502547676	-0.5897603789290133	-0.4540209100131725	-0.03134485024292642	-0.6104327116095891	-0.45182958180975463	-0.01313221462153508	-0.6392052273557618
1	0.0169491525423728	0.357129592218661	0.40333124601631487	-0.19704098358434557	0.34181848256480685	0.6624142071254095	0.20488558535065537	0.32385828246020637	0.8661691209800534	0.5616754720517773	0.3418684539809195	0.7205214101738074	0.6553276020778431	0.40536409750077634	0.7420849299736547	0.6443475389244154	0.2639267831979299	0.9977951346274712	0.6069938572830682	0.1731988396813085	0.3573377448166128	-0.17812372031791934	0.148771691017819	0.6142006211113633	0.21957736846363507	0.1320561518243012	0.8311091637767728	0.5815094257446414	0.20873380941063108	0.6499322868336435	0.6535128646489313	0.13746538608021558	0.7021194079478488	0.6635247294311208	0.13276978190233057	0.907171042730532	0.6213411835438345	0.2885900179796653	0.12649238448694797	-0.6247176356851772	0.347493632114209	-0.14644183971430105	-0.7518462279980153	0.32313862503412455	-0.04497331946262309	-0.6227810624413314	0.4282513835398447	0.14577516783653233	-0.6361581989517475	0.6591749091283597	0.272286968729866	-0.7112709554380358	0.8767102097001862	0.33217629892351275	-0.7371522903881483	1.0082115982690567	0.3621114258168695	-0.7128007764393427	1.0064085587146667	0.3900575181132871	-0.7206771317291776	0.9801696952220964	0.38794069902622996	-0.7168232704133547	0.13944632202150797	0.11007401553838078	-0.6194577421907289	-0.11087056371073274	0.062442487557275946	-0.6392348722401809	-0.3517553573810613	0.007919184208727769	-0.6254529813791918	-0.437165353309264	-0.05376542889906355	-0.5899730639431232	-0.45523316953953347	-0.03295841579767335	-0.6068857596359893	-0.45295521144231515	-0.007119899438083511	-0.6322721115930463
2	0.0338983050847457	0.3602877231752565	0.40037756003737746	-0.19359935203257972	0.3418054032897212	0.6625327214948512	0.2050088114309954	0.3238906291446232	0.8645213114186358	0.5615987115535992	0.34188321533513294	0.720537293802738	0.6549043411520685	0.40540937890961554	0.742228222508445	0.6441503804851408	0.2636493821813377	0.9978726338163788	0.6053751703340792	0.17520251208137214	0.3515270621604672	-0.1793885305838437	0.14990619374374098	0.6155356667320123	0.21932242140248742	0.13299423276266018	0.8331595174210134	0.5818056314638937	0.2091791733343878	0.6491577998392287	0.6521383646768065	0.14162704376852078	0.6980037899371216	0.6623269549866965	0.13379220637940806	0.9104824815876944	0.6216252454585648	0.28854356026323563	0.12728301445163454	-0.6235669445709908	0.34942607024649375	-0.14826544408872072	-0.7487740007748864	0.321958584346029	-0.047878599254126984	-0.6237315734211182	0.4281686716383343	0.14532229778652256	-0.6359682537880491	0.6591373541004921	0.27235121580159893	-0.7113369438367995	0.874351615417623	0.32834718561312587	-0.734228121643836	1.006958229303496	0.3661962712622024	-0.7116579827358834	1.006091152912814	0.3953042172597815	-0.7167435126311629	0.9782958896408227	0.39817438765520785	-0.7156398738526363	0.13978542444028738	0.10586996251521308	-0.6177663869080656	-0.11534771845867488	0.0640846565840074	-0.6411152466833548	-0.35596515637562637	0.012207458959305332	-0.626123689142148	-0.441022306712363	-0.048056447716479433	-0.5894577890464792	-0.45602155729584454	-0.03356644813251597	-0.604191419529444	-0.4540232688759963	-0.002315248097938769	-0.6283770282374446
3	0.0508474576271186	0.3607558438595463	0.3991346386301815	-0.1925815677345872	0.3417308100365346	0.6627046939002308	0.20491930296996902	0.3237498103093293	0.8663249008856619	0.5615265226336232	0.34185670075328956	0.7202055530489943	0.6538482357115695	0.40541916921995286	0.7424127849763311	0.6439671552926464	0.2634003640444952	0.9980961103060331	0.6043829707300254	0.17715103673596075	0.347988325604221	-0.17932916654889797	0.15062800481213248	0.6163659097300744	0.21860534166525658	0.13424096800405771	0.8361061243481206	0.5827054518713228	0.20932248964108308	0.6484439208535211	0.6512677797122098	0.14333130451375664	0.6986725226772739	0.6608177882187867	0.13420692689399175	0.9124921581149709	0.623147038549289	0.28968903364229937	0.12549071800108175	-0.6225615827669179	0.350969417420929	-0.1510506054866054	-0.7462215525483005	0.32136697559902083	-0.052001412265610406	-0.6226778592767773	0.42678927133011907	0.14315538898733204	-0.6345783446873171	0.6591474595350665	0.27239477286118224	-0.7113404141956294	0.8733115336540778	0.3281732348981705	-0.7314965477767401	1.0059097386948659	0.37014700710787146	-0.7121016567660367	1.007384526750635	0.39609620492323633	-0.7132307310764058	0.982798348941173	0.4012782441544456	-0.7162373466635432	0.1400280313357421	0.10295559968805221	-0.6165428759223288	-0.11636829937287127	0.060743043009495755	-0.6388945962837399	-0.3567854366792357	0.012627622128598385	-0.6244845669860736	-0.4423938649687215	-0.04308793087789988	-0.5876650096027867	-0.4563701212624208	-0.03307970446319488	-0.602641577930988	-0.4547034569621801	0.000383690072602396	-0.6265727008517485
